<svg id="Group_856" data-name="Group 856" xmlns="http://www.w3.org/2000/svg" width="33.213" height="33.213" viewBox="0 0 33.213 33.213">
  <g id="Group_1263" data-name="Group 1263" transform="translate(0 0)">
    <path id="Path_4362" data-name="Path 4362" d="M734.072-1036.766a16.5,16.5,0,0,0-11.743-4.864,16.5,16.5,0,0,0-11.743,4.864,16.5,16.5,0,0,0-4.864,11.743,16.5,16.5,0,0,0,4.864,11.743,16.5,16.5,0,0,0,11.743,4.863,16.5,16.5,0,0,0,11.743-4.863,16.5,16.5,0,0,0,4.864-11.743A16.5,16.5,0,0,0,734.072-1036.766Zm2.736,10.659a18.035,18.035,0,0,1-7.817-4.11l4.311-4.311A14.392,14.392,0,0,1,736.808-1026.107ZM731.834-1036l-4.311,4.311a18.036,18.036,0,0,1-4.11-7.817A14.377,14.377,0,0,1,731.834-1036Zm-10.555-3.506a20.136,20.136,0,0,0,4.776,9.285l-3.726,3.726L712.824-1036A14.369,14.369,0,0,1,721.279-1039.5Zm-9.922,4.974,9.505,9.505-3.726,3.726a20.126,20.126,0,0,0-9.285-4.776A14.375,14.375,0,0,1,711.357-1034.528Zm-3.506,10.589a18.058,18.058,0,0,1,7.817,4.11l-4.311,4.311A14.392,14.392,0,0,1,707.851-1023.939Zm4.974,9.889,4.311-4.311a18.037,18.037,0,0,1,4.11,7.817A14.378,14.378,0,0,1,712.824-1014.05Zm10.555,3.506a20.136,20.136,0,0,0-4.776-9.285l3.726-3.726,9.5,9.505A14.369,14.369,0,0,1,723.38-1010.544Zm9.922-4.974-9.505-9.505,3.726-3.726a20.126,20.126,0,0,0,9.285,4.776A14.375,14.375,0,0,1,733.3-1015.518Z" transform="translate(-705.723 1041.629)" fill="#484848"/>
  </g>
</svg>
