<svg xmlns="http://www.w3.org/2000/svg" width="25.689" height="25.689" viewBox="0 0 25.689 25.689">
  <g id="Group_1608" data-name="Group 1608" transform="translate(-420.499 -6556)">
    <g id="Group_1582" data-name="Group 1582" transform="translate(313.106 6295.428)">
      <g id="Group_1582-2" data-name="Group 1582" transform="translate(114.117 265.617)">
        <g id="Group_1113" data-name="Group 1113">
          <path id="Path_1226" data-name="Path 1226" d="M115.369,282.378m9.393-1.53-1.324.607a3.848,3.848,0,0,1-3.351-.6,10.388,10.388,0,0,1-1.517-1.407,19.571,19.571,0,0,1-2.594-3.376,20.164,20.164,0,0,1-2.038-4.518c-.125-.408-.239-.82-.328-1.238a3.614,3.614,0,0,1-.026-1.237,4.181,4.181,0,0,1,.547-1.593,3.935,3.935,0,0,1,1.344-1.371q.6-.372,1.21-.737a1.154,1.154,0,0,1,1.6.331l.033.052q.754,1.222,1.483,2.461a1.147,1.147,0,0,1-.389,1.569q-.725.456-1.46.892c-.219.133-.328.236-.195.565a18.561,18.561,0,0,0,3.238,5.358c.23.267.3.273.6.09.471-.288.943-.577,1.415-.863a1.167,1.167,0,0,1,1.611.364l.02.032q.728,1.2,1.451,2.406a1.164,1.164,0,0,1-.343,1.611l-.06.037c-.307.189-.618.373-.922.568A8.03,8.03,0,0,1,123.437,281.455Zm-9.023-11.8c.023.172.037.4.086.62a16.38,16.38,0,0,0,.924,2.783,18.676,18.676,0,0,0,3.363,5.327,12.369,12.369,0,0,0,1.724,1.693,2.959,2.959,0,0,0,3.162.356,15.51,15.51,0,0,0,1.59-.929.274.274,0,0,0,.1-.374c-.008-.012-.016-.024-.025-.036q-.718-1.191-1.438-2.378c-.131-.219-.259-.241-.48-.109-.494.3-.984.607-1.484.9a1.136,1.136,0,0,1-1.546-.261c-.387-.466-.771-.935-1.128-1.421a18.571,18.571,0,0,1-2.352-4.346,1.16,1.16,0,0,1,.511-1.508l1.438-.875c.246-.149.281-.273.137-.515q-.705-1.174-1.413-2.346a.282.282,0,0,0-.364-.161.29.29,0,0,0-.084.051c-.394.235-.788.469-1.177.714a3.264,3.264,0,0,0-1.543,2.813" transform="translate(-113.543 -265.186)" fill="#9a9a9a"/>
        </g>
      </g>
      <path id="Path_11462" data-name="Path 11462" d="M120.237,286.261a12.844,12.844,0,1,1,12.844-12.844A12.859,12.859,0,0,1,120.237,286.261Zm0-24.54a11.7,11.7,0,1,0,11.7,11.7A11.708,11.708,0,0,0,120.237,261.721Z" fill="#9a9a9a"/>
    </g>
  </g>
</svg>
