<svg xmlns="http://www.w3.org/2000/svg" width="42.745" height="42.745" viewBox="0 0 42.745 42.745">
  <path id="Path_4348" data-name="Path 4348" d="M39.916,6.371,36.373,2.828a6.269,6.269,0,0,0-8.856,0L8.653,21.693a6.208,6.208,0,0,0-1.8,4.428V30.61L.1,37.33a3.757,3.757,0,1,0,5.315,5.311L12.134,35.9h4.489a6.206,6.206,0,0,0,4.428-1.8l4.879-4.879a6.264,6.264,0,0,0,8.679-8.679l5.307-5.307A6.269,6.269,0,0,0,39.916,6.371ZM10.664,33.822l-.835.838L8.084,32.915l.838-.835,4.354-2.612ZM6.294,38.21l-1.76-1.76,1.775-1.768,1.753,1.753ZM1.872,40.872a1.254,1.254,0,0,1,0-1.77l.889-.885,1.767,1.767-.884.888A1.254,1.254,0,0,1,1.872,40.872Zm30.17-14.229a3.757,3.757,0,1,1,0-5.314A3.755,3.755,0,0,1,32.041,26.644Zm6.1-13.188-5.306,5.306A6.264,6.264,0,0,0,24.16,27.44l-4.88,4.88a3.719,3.719,0,0,1-2.657,1.07h-2.78L18,26.462a1.252,1.252,0,0,0-1.718-1.718L9.354,28.9v-2.78a3.72,3.72,0,0,1,1.07-2.657L29.289,4.6a3.762,3.762,0,0,1,5.314,0l3.542,3.542A3.762,3.762,0,0,1,38.145,13.456Z" transform="translate(0.998 -0.997)" fill="#484848"/>
</svg>
