<svg xmlns="http://www.w3.org/2000/svg" width="25.689" height="25.689" viewBox="0 0 25.689 25.689">
  <g id="Group_1607" data-name="Group 1607" transform="translate(-420.499 -6514.302)">
    <g id="Group_1606" data-name="Group 1606">
      <g id="Group_1605" data-name="Group 1605">
        <g id="Group_1604" data-name="Group 1604">
          <path id="Path_11467" data-name="Path 11467" d="M589.809,486.75H570.26a.513.513,0,0,0-.514.514v14.942a.513.513,0,0,0,.514.514h19.549a.515.515,0,0,0,.515-.514V487.264A.515.515,0,0,0,589.809,486.75Zm-1.239,1.024-8.536,8.536-8.539-8.536ZM570.785,501.7V488.514l4.659,4.66,4.227,4.226a.512.512,0,0,0,.726,0l8.9-8.9v13.189Z" transform="translate(-146.692 6032.25)" fill="#9a9a9a"/>
        </g>
        <path id="Path_11468" data-name="Path 11468" d="M120.237,286.261a12.844,12.844,0,1,1,12.844-12.844A12.859,12.859,0,0,1,120.237,286.261Zm0-24.54a11.7,11.7,0,1,0,11.7,11.7A11.708,11.708,0,0,0,120.237,261.721Z" transform="translate(313.106 6253.73)" fill="#9a9a9a"/>
      </g>
    </g>
  </g>
</svg>
