<svg xmlns="http://www.w3.org/2000/svg" width="19.874" height="26.495" viewBox="0 0 19.874 26.495">
  <g id="Group_1266" data-name="Group 1266" transform="translate(0 0)">
    <g id="Group_1265" data-name="Group 1265" transform="translate(0 0)">
      <path id="Path_4369" data-name="Path 4369" d="M79.661,9.936l4.008-6.011a1.1,1.1,0,0,0-.919-1.716H66.19V1.1a1.1,1.1,0,0,0-2.208,0V25.392a1.1,1.1,0,0,0,2.208,0V17.664H82.75a1.1,1.1,0,0,0,.919-1.716ZM66.19,15.456V4.416h14.5L77.415,9.323a1.1,1.1,0,0,0,0,1.225l3.272,4.908H66.19Z" transform="translate(-63.982 0)" fill="#9a9a9a"/>
    </g>
  </g>
</svg>
