<svg xmlns="http://www.w3.org/2000/svg" width="33.003" height="33.003" viewBox="0 0 33.003 33.003">
  <path id="Path_4346" data-name="Path 4346" d="M28.17-1036.686a16.394,16.394,0,0,0-11.668-4.833,16.394,16.394,0,0,0-11.668,4.833A16.394,16.394,0,0,0,0-1025.017a16.393,16.393,0,0,0,4.833,11.668,16.394,16.394,0,0,0,11.668,4.833,16.394,16.394,0,0,0,11.668-4.833A16.394,16.394,0,0,0,33-1025.017a16.394,16.394,0,0,0-4.833-11.668Zm.008,15.492,2.778-2.009a14.416,14.416,0,0,1-1.725,5.277Zm-1.3-1.446-4.614-1.52-1.6-4.93,2.867-3.919,5.163.009a14.44,14.44,0,0,1,2.364,7.34ZM16.5-1020.967l-3.852-2.8,1.471-4.529h4.761l1.471,4.529Zm-5.757-3.2-4.621,1.5L1.952-1025.7a14.438,14.438,0,0,1,2.385-7.333l5.162.006,2.847,3.936Zm-6.993,6.2a14.418,14.418,0,0,1-1.709-5.281l2.772,2.017Zm23.413-16.977-3.424-.006-1.057-3.269a14.576,14.576,0,0,1,4.118,2.9C26.925-1035.193,27.046-1035.067,27.165-1034.939Zm-6.79-4.126,1.588,4.914-2.869,3.921H13.913l-2.847-3.935,1.6-4.911a14.636,14.636,0,0,1,3.833-.508A14.645,14.645,0,0,1,20.374-1039.066Zm-10.017.834-1.066,3.266-3.425,0c.11-.117.221-.233.335-.348A14.572,14.572,0,0,1,10.357-1038.232Zm-5.234,22.309,1.6-4.9,4.621-1.5,4.193,3.047v4.857l-4.179,3.036a14.524,14.524,0,0,1-5.153-3.334A14.82,14.82,0,0,1,5.123-1015.923Zm8.6,5.208,2.775-2.016,2.775,2.016a14.716,14.716,0,0,1-2.775.263A14.721,14.721,0,0,1,13.726-1010.715Zm7.922-.669-4.179-3.036v-4.857l4.189-3.043,4.613,1.52,1.583,4.911a14.811,14.811,0,0,1-1.053,1.173,14.523,14.523,0,0,1-5.153,3.334Z" transform="translate(0 1041.519)" fill="#d1154b"/>
</svg>
