<svg xmlns="http://www.w3.org/2000/svg" width="47" height="47.001" viewBox="0 0 47 47.001">
  <g id="Group_848" data-name="Group 848" transform="translate(2740 -93.124)">
    <g id="Group_816" data-name="Group 816" transform="translate(-2740 93.124)">
      <path id="Path_4317" data-name="Path 4317" d="M329.46,155.567h-47v-47h47Zm-42.87-4.131h38.739V112.7H286.59Z" transform="translate(-282.46 -108.566)" fill="#fff"/>
    </g>
    <path id="Path_4329" data-name="Path 4329" d="M313.248,117.54h-5.307c-.063.226-.108.449-.184.677-1.347,3.977-4.385,6.542-6.785,5.728-1.937-.655-2.843-3.315-2.423-6.4H294.24v0l-.59,0-3.459,19.115,4.882.023,1.457-8.029a6.049,6.049,0,0,0,2.628,1.826c2.247.76,4.769.037,7.1-1.744l-1.42,7.995,4.886.023,3.346-18.625C313.129,117.93,313.2,117.734,313.248,117.54Z" transform="translate(-3018.219 -10.52)" fill="#fff"/>
    <g id="Group_830" data-name="Group 830" transform="translate(-2740 93.124)">
      <path id="Path_4317-2" data-name="Path 4317" d="M329.46,155.567h-47v-47h47Zm-42.87-4.131h38.739V112.7H286.59Z" transform="translate(-282.46 -108.566)" fill="#fff"/>
    </g>
    <path id="Path_4333" data-name="Path 4333" d="M313.248,117.54h-5.307c-.063.226-.108.449-.184.677-1.347,3.977-4.385,6.542-6.785,5.728-1.937-.655-2.843-3.315-2.423-6.4H294.24v0l-.59,0-3.459,19.115,4.882.023,1.457-8.029a6.049,6.049,0,0,0,2.628,1.826c2.247.76,4.769.037,7.1-1.744l-1.42,7.995,4.886.023,3.346-18.625C313.129,117.93,313.2,117.734,313.248,117.54Z" transform="translate(-3018.219 -10.52)" fill="#fff"/>
  </g>
</svg>
