<svg xmlns="http://www.w3.org/2000/svg" width="60.788" height="60.79" viewBox="0 0 60.788 60.79">
  <g id="Group_1604" data-name="Group 1604" transform="translate(-306.366 -7443.926)">
    <g id="Group_1338" data-name="Group 1338" transform="translate(3046.366 7350.803)">
      <g id="Group_816" data-name="Group 816" transform="translate(-2740 93.124)">
        <path id="Path_4317" data-name="Path 4317" d="M343.248,169.356H282.46v-60.79h60.788ZM287.8,164.013h50.1v-50.1H287.8Z" transform="translate(-282.46 -108.566)" fill="#d1154b"/>
      </g>
      <path id="Path_4329" data-name="Path 4329" d="M320.012,117.54h-6.863c-.082.292-.14.581-.238.875-1.742,5.143-5.672,8.462-8.776,7.408-2.505-.847-3.677-4.288-3.134-8.283h-5.572v0l-.763,0-4.474,24.722,6.315.03,1.885-10.384a7.824,7.824,0,0,0,3.4,2.361c2.906.983,6.169.048,9.183-2.255l-1.837,10.34,6.319.03,4.328-24.089C319.858,118.045,319.944,117.79,320.012,117.54Z" transform="translate(-3014.708 -6.443)" fill="#d1154b"/>
      <g id="Group_830" data-name="Group 830" transform="translate(-2740 93.124)">
        <path id="Path_4317-2" data-name="Path 4317" d="M343.248,169.356H282.46v-60.79h60.788ZM287.8,164.013h50.1v-50.1H287.8Z" transform="translate(-282.46 -108.566)" fill="#d1154b"/>
      </g>
      <path id="Path_4333" data-name="Path 4333" d="M320.012,117.54h-6.863c-.082.292-.14.581-.238.875-1.742,5.143-5.672,8.462-8.776,7.408-2.505-.847-3.677-4.288-3.134-8.283h-5.572v0l-.763,0-4.474,24.722,6.315.03,1.885-10.384a7.824,7.824,0,0,0,3.4,2.361c2.906.983,6.169.048,9.183-2.255l-1.837,10.34,6.319.03,4.328-24.089C319.858,118.045,319.944,117.79,320.012,117.54Z" transform="translate(-3014.708 -6.443)" fill="#d1154b"/>
    </g>
  </g>
</svg>
