<svg xmlns="http://www.w3.org/2000/svg" width="20" height="20.163" viewBox="0 0 20 20.163">
  <g id="Group_1114" data-name="Group 1114" transform="translate(-4675.715 -6272.106)" opacity="0.379">
    <path id="Path_1216" data-name="Path 1216" d="M-15.445-10.763c0,1.924.011,3.849,0,5.773A3.375,3.375,0,0,1-17.97-1.678a3.706,3.706,0,0,1-1.079.155q-4.189.019-8.378,0a3.53,3.53,0,0,1-3.562-2.633A3.153,3.153,0,0,1-31.1-5q-.01-5.745,0-11.489a3.38,3.38,0,0,1,2.069-3.225,7.8,7.8,0,0,1,.9-.287c.082-.028.2-.088.214-.152a1.891,1.891,0,0,1,1.468-1.342,3.38,3.38,0,0,1,.926-.174c1.564-.013,3.128-.02,4.691.016a2.484,2.484,0,0,1,1.649.63,2.406,2.406,0,0,1,.513.743.463.463,0,0,0,.36.308,3.44,3.44,0,0,1,2.8,2.725,3.68,3.68,0,0,1,.062.82q.007,2.829,0,5.659Zm-1.028.006q0-2.729,0-5.459c0-.237,0-.475-.023-.71a2.5,2.5,0,0,0-2.056-2.085.578.578,0,0,0-.424.1,2.678,2.678,0,0,1-1.828.785c-1.642.044-3.286.04-4.927,0a2.466,2.466,0,0,1-1.708-.7.611.611,0,0,0-.662-.159,2.512,2.512,0,0,0-1.968,2.557c0,3.772.011,7.544-.006,11.316A2.59,2.59,0,0,0-27.359-2.5c2.733-.025,5.465-.005,8.2-.01a2.948,2.948,0,0,0,.763-.079,2.435,2.435,0,0,0,1.924-2.458c.005-1.9,0-3.81,0-5.715m-6.788-8.32c0-.007,0-.015,0-.022.752,0,1.508.042,2.255-.017a2.866,2.866,0,0,0,1.121-.385.424.424,0,0,0,0-.787,2.249,2.249,0,0,0-1.006-.366c-1.493-.048-2.988-.054-4.482-.033a3.612,3.612,0,0,0-1.079.268.547.547,0,0,0-.426.526c0,.282.206.416.426.532a2.909,2.909,0,0,0,1.375.285c.6,0,1.208,0,1.812,0" transform="translate(4706.817 6293.781)" fill="#fff"/>
    <path id="Path_1217" data-name="Path 1217" d="M-.005-10.24c0-2.208.006-4.417-.005-6.625A2.455,2.455,0,0,1,.2-17.885c.345-.795.676-1.6,1.007-2.4.073-.177.156-.336.383-.341s.322.147.4.325c.366.879.743,1.753,1.1,2.636a1.667,1.667,0,0,1,.113.607Q3.2-10.2,3.2-3.347c0,.457-.1.558-.57.558-.7,0-1.406,0-2.109,0C.1-2.795,0-2.894,0-3.3q0-3.47,0-6.939m.73-1.108c0,1.924,0,3.849-.006,5.773,0,.252.076.334.336.32a7.786,7.786,0,0,1,1.04,0c.313.025.375-.089.374-.369-.01-3.432-.021-6.863,0-10.3a4.817,4.817,0,0,0-.5-2.527.452.452,0,0,1-.019-.054c-.063-.15-.114-.277-.344-.278a.354.354,0,0,0-.381.269c-.087.222-.174.444-.274.659a2.6,2.6,0,0,0-.24,1.154c.017,1.783.007,3.565.007,5.347m.884,6.788c-.924,0-.92,0-.888.856.006.165.051.244.237.234.216-.012.434,0,.651,0,.88,0,.876,0,.854-.856,0-.167-.047-.243-.234-.233-.206.012-.414,0-.622,0" transform="translate(4692.516 6294.712)" fill="#fff"/>
    <path id="Path_1218" data-name="Path 1218" d="M-2.833-3.886l1.381-1.847L-.069-7.58a.457.457,0,0,1,.53-.22.685.685,0,0,1,.392.366.711.711,0,0,1-.159.511C-.192-5.714-1.094-4.515-1.99-3.313c-.086.116-.165.236-.247.354a.558.558,0,0,1-.84.143Q-4.238-3.654-5.4-4.5c-.321-.233-.393-.5-.208-.753s.5-.262.833-.027c.634.453,1.267.907,1.939,1.388" transform="translate(4686.09 6292.868)" fill="#fff"/>
    <path id="Path_1219" data-name="Path 1219" d="M-4.137-.967q-1.738,0-3.476,0a1.847,1.847,0,0,1-.326-.019.445.445,0,0,1-.39-.439.439.439,0,0,1,.334-.481,1.368,1.368,0,0,1,.381-.038q3.505,0,7.012,0a1.738,1.738,0,0,1,.266.013A.479.479,0,0,1,.1-1.441a.459.459,0,0,1-.463.463c-.365.018-.732.012-1.1.013q-1.337,0-2.674,0Z" transform="translate(4687.486 6281.669)" fill="#fff"/>
    <path id="Path_1220" data-name="Path 1220" d="M-4.163-.966h-3.5a1.589,1.589,0,0,1-.325-.018.452.452,0,0,1-.391-.47.443.443,0,0,1,.364-.461,1.782,1.782,0,0,1,.412-.029q3.475,0,6.95,0a1.8,1.8,0,0,1,.266.012.472.472,0,0,1,.434.492.47.47,0,0,1-.465.466c-.276.017-.554.008-.831.009H-4.163" transform="translate(4687.542 6279.304)" fill="#fff"/>
    <path id="Path_1221" data-name="Path 1221" d="M-4.165-.967H-7.611a2.532,2.532,0,0,1-.355-.012.453.453,0,0,1-.42-.446.443.443,0,0,1,.36-.49A1.279,1.279,0,0,1-7.7-1.945q3.476,0,6.951,0A2.392,2.392,0,0,1-.4-1.933a.476.476,0,0,1,.434.521.467.467,0,0,1-.489.438c-.475.011-.951.006-1.426.007H-4.165" transform="translate(4687.547 6284.037)" fill="#fff"/>
  </g>
</svg>
