<svg xmlns="http://www.w3.org/2000/svg" width="53.156" height="33.469" viewBox="0 0 53.156 33.469">
  <path id="Path_11456" data-name="Path 11456" d="M76.422,120H56.734a16.734,16.734,0,0,0,0,33.469H76.422a16.734,16.734,0,0,0,0-33.469Zm-1.23,2.461h1.23a14.188,14.188,0,0,1,6.112,1.377l-2.315,2.315H75.191Zm-7.383,0H72.73v3.691H67.809Zm0,6.152H79.5v2.461H75.807a1.23,1.23,0,0,0-1.23,1.23v8.859a1.23,1.23,0,0,0,1.23,1.23H79.5v2.461H67.809v-4.641a3.691,3.691,0,0,0,0-6.96ZM79.5,133.535v6.4H77.037v-6.4ZM60.426,122.461h4.922v3.691H60.426Zm-3.691,0h1.23v3.691H52.938l-2.315-2.315A14.188,14.188,0,0,1,56.734,122.461Zm-3.076,11.074h2.461v6.4H53.658Zm-5.224-8.406,2.763,2.763V135.5H42.515A14.276,14.276,0,0,1,48.434,125.129Zm-5.919,12.836H51.2v7.611l-2.763,2.763A14.276,14.276,0,0,1,42.515,137.965Zm15.45,13.043h-1.23a14.188,14.188,0,0,1-6.112-1.377l2.315-2.315h5.027Zm7.383,0H60.426v-3.691h4.922Zm0-6.152H53.658v-2.461H57.35a1.23,1.23,0,0,0,1.23-1.23V132.3a1.23,1.23,0,0,0-1.23-1.23H53.658v-2.461H65.348v4.641a3.691,3.691,0,0,0,0,6.96Zm1.23-6.891a1.23,1.23,0,1,1,1.23-1.23A1.232,1.232,0,0,1,66.578,137.965Zm6.152,13.043H67.809v-3.691H72.73Zm3.691,0h-1.23v-3.691h5.027l2.315,2.315A14.188,14.188,0,0,1,76.422,151.008Zm8.3-2.668-2.763-2.763v-7.611h8.683A14.276,14.276,0,0,1,84.722,148.339ZM81.959,135.5v-7.611l2.763-2.763A14.276,14.276,0,0,1,90.642,135.5Z" transform="translate(-40 -120)" fill="#d1154b"/>
</svg>
