<svg xmlns="http://www.w3.org/2000/svg" width="37.888" height="23.855" viewBox="0 0 37.888 23.855">
  <path id="Path_4425" data-name="Path 4425" d="M65.96,120H51.928a11.928,11.928,0,1,0,0,23.855H65.96a11.928,11.928,0,1,0,0-23.855Zm-.877,1.754h.877a10.112,10.112,0,0,1,4.356.981l-1.65,1.65H65.083Zm-5.262,0h3.508v2.631H59.821Zm0,4.385h8.332v1.754H65.522a.877.877,0,0,0-.877.877v6.315a.877.877,0,0,0,.877.877h2.631v1.754H59.821v-3.308a2.631,2.631,0,0,0,0-4.96Zm8.332,3.508v4.561H66.4v-4.561Zm-13.594-7.893h3.508v2.631H54.559Zm-2.631,0H52.8v2.631H49.221l-1.65-1.65A10.112,10.112,0,0,1,51.928,121.754Zm-2.193,7.893h1.754v4.561H49.735Zm-3.724-5.991,1.97,1.97v5.425H41.792A10.175,10.175,0,0,1,46.011,123.656ZM41.792,132.8h6.189v5.425l-1.97,1.97A10.175,10.175,0,0,1,41.792,132.8ZM52.8,142.1h-.877a10.113,10.113,0,0,1-4.356-.981l1.65-1.65H52.8Zm5.262,0H54.559V139.47h3.508Zm0-4.385H49.735v-1.754h2.631a.877.877,0,0,0,.877-.877V128.77a.877.877,0,0,0-.877-.877H49.735v-1.754h8.332v3.308a2.631,2.631,0,0,0,0,4.96Zm.877-4.911a.877.877,0,1,1,.877-.877A.878.878,0,0,1,58.944,132.8Zm4.385,9.3H59.821V139.47h3.508Zm2.631,0h-.877V139.47h3.583l1.65,1.65A10.113,10.113,0,0,1,65.96,142.1Zm5.916-1.9-1.97-1.97V132.8H76.1A10.175,10.175,0,0,1,71.876,140.2Zm-1.97-9.149v-5.425l1.97-1.97a10.175,10.175,0,0,1,4.219,7.395Z" transform="translate(-40 -120)" fill="#9a9a9a"/>
</svg>
