<svg xmlns="http://www.w3.org/2000/svg" width="35.048" height="35.049" viewBox="0 0 35.048 35.049">
  <path id="Path_4347" data-name="Path 4347" d="M32.031,3.018A10.692,10.692,0,0,0,23.374.048a14.591,14.591,0,0,0-8.983,4.326h0q-.1.1-.2.209a15.252,15.252,0,0,0-3.109,4.7,41.379,41.379,0,0,0-2.71,10.791c-.419,2.715-.852,5.522-1.7,6.375l0,0h0L.4,32.712a1.369,1.369,0,0,0,1.936,1.936L8.6,28.384c.8-.8,3.161-1.068,5.663-1.357,4.773-.55,11.3-1.3,16.317-6.252l.056-.055a8.789,8.789,0,0,0,1.629-2.038,1.369,1.369,0,0,0-1.189-2.047H29.434V13.892h4.039a1.369,1.369,0,0,0,1.286-.9l.073-.2a1.364,1.364,0,0,0,.067-.26A10.9,10.9,0,0,0,32.031,3.018Zm-1.3,2.666h-1.3V4.369a7.28,7.28,0,0,1,.661.585A7.2,7.2,0,0,1,30.731,5.683ZM26.7,3.023V5.683H23.958V2.75A8.932,8.932,0,0,1,26.7,3.023Zm-8.288,1.6A11.977,11.977,0,0,1,21.22,3.268V5.683H18.413V4.725C18.413,4.69,18.411,4.655,18.408,4.619Zm-3.762,3.8h1.029v2.732H13.3c.066-.2.138-.4.215-.593A16,16,0,0,1,14.647,8.421ZM12.77,13.892h2.906v2.744H13.024A8.944,8.944,0,0,1,12.77,13.892Zm2.906,5.482V20.7a7.284,7.284,0,0,1-1.327-1.326Zm12.392,0a12.239,12.239,0,0,1-4.109,2.373V19.374ZM21.22,22.289a8.988,8.988,0,0,1-2.807-.26V19.374H21.22Zm-2.807-5.653V13.892H21.22v2.744Zm0-5.482V8.421H21.22v2.732Zm5.545-2.732H26.7v2.732H23.958ZM13.951,24.307c-1.348.155-2.578.3-3.661.515.309-1.255.534-2.718.784-4.333q.072-.466.147-.945a10.11,10.11,0,0,0,4.757,4.519C15.283,24.154,14.606,24.232,13.951,24.307ZM26.7,16.636H23.958V13.892H26.7Zm5.6-5.482h-2.86V8.421H31.9c.047,0,.093,0,.139-.007A8.969,8.969,0,0,1,32.294,11.154ZM4.792,9.585A4.792,4.792,0,1,0,0,4.794,4.8,4.8,0,0,0,4.792,9.585Zm0-6.845A2.054,2.054,0,1,1,2.738,4.794,2.056,2.056,0,0,1,4.792,2.74Z" transform="translate(0 0)" fill="#484848"/>
</svg>
