<svg xmlns="http://www.w3.org/2000/svg" width="25.689" height="25.697" viewBox="0 0 25.689 25.697">
  <g id="noun_profile_405164" data-name="noun profile 405164" transform="translate(-107.837 -8.515)">
    <g id="Group_1331" data-name="Group 1331">
      <path id="Path_11457" data-name="Path 11457" d="M120.672,34.2c-.114,0-.228,0-.343-.006a12.842,12.842,0,0,1,.353-25.68h0a12.842,12.842,0,0,1,.346,25.68,1.286,1.286,0,0,1-.348.006Zm-.291-1.055q.3.009.6,0a10.509,10.509,0,0,0,6.058-2.137c-.218-2.93-2.159-5.487-4.208-5.487h-4.293c-2.218,0-3.946,2.845-4.195,5.5A10.517,10.517,0,0,0,120.381,33.146Zm.3-23.58a11.781,11.781,0,0,0-7.346,21c.415-3.057,2.476-6.1,5.2-6.1h4.293c2.762,0,4.836,3.044,5.215,6.081a11.781,11.781,0,0,0-7.363-20.987Zm-.049,14.251a4.419,4.419,0,0,1-.005-8.837h0a.477.477,0,0,1,.076.006,4.416,4.416,0,0,1-.072,8.831Zm-.066-7.786a4.207,4.207,0,1,0,.068,0h0A.489.489,0,0,1,120.568,16.031Z" fill="#9a9a9a"/>
    </g>
  </g>
</svg>
